# xmcd
#
# Track frame offsets: 
#        150
#        16701
#        33276
#        54246
#        71951
#        84369
#        99059
#        116618
#        134791
#        157025
#        173367
#        192719
#        207836
#        221747
#
# Disc length: 3229 seconds
#
# Revision: 2
# Processed by: cddbd v1.5.2PL0 Copyright (c) Steve Scherf et al.
# Submitted via: ExactAudioCopy v0.95a4
#
DISCID=bd0c9b0e
DTITLE=Various Artist - O Melhor das Novelas da Globo - Dance 
DYEAR=2005
DGENRE=Dance
TTITLE0=Alexia - Number One
TTITLE1=Snap - Rhythm Is a Dancer
TTITLE2=Black Box - Everybody Everybody
TTITLE3=Right Said Fred - Don't Talk, Just Kiss
TTITLE4=Trio Rio - New York, Rio, Tokyo
TTITLE5=Double You - Please Don't Go
TTITLE6=Everything But The Girl - Missing
TTITLE7=Robert Miles - Children
TTITLE8=Eiffel 65 - Blue (Da Ba Dee)
TTITLE9=Soul II Soul - Get a Life
TTITLE10=Lisa Stansfield - The Real Thing
TTITLE11=Icehouse - No Promises
TTITLE12=T.J. - Bring It On
TTITLE13=Deep House - D-Deep Deep House
EXTD=quero resgistrar o pograma 
EXTT0=
EXTT1=
EXTT2=
EXTT3=
EXTT4=
EXTT5=
EXTT6=
EXTT7=
EXTT8=
EXTT9=
EXTT10=
EXTT11=
EXTT12=
EXTT13=
PLAYORDER=
